<?xml version="1.0" standalone="no"?>
<!DOCTYPE svg PUBLIC "-//W3C//DTD SVG 20010904//EN"
 "http://www.w3.org/TR/2001/REC-SVG-20010904/DTD/svg10.dtd">
<svg version="1.0" xmlns="http://www.w3.org/2000/svg"
 width="300.000000pt" height="225.000000pt" viewBox="0 0 300.000000 225.000000"
 preserveAspectRatio="xMidYMid meet">

<g transform="translate(0.000000,225.000000) scale(0.100000,-0.100000)"
fill="#000000" stroke="none">
<path d="M0 1125 l0 -1125 190 0 190 0 0 1125 0 1125 -190 0 -190 0 0 -1125z"/>
<path d="M2630 1125 l0 -1125 185 0 185 0 0 1125 0 1125 -185 0 -185 0 0
-1125z"/>
<path d="M1991 1215 c-76 -21 -138 -69 -175 -135 -28 -49 -31 -64 -31 -135 0
-154 49 -213 263 -316 167 -81 192 -101 192 -157 0 -51 -35 -87 -98 -101 -87
-18 -156 7 -222 80 l-35 39 -82 -48 c-46 -26 -83 -50 -83 -54 0 -16 84 -110
119 -133 108 -72 272 -95 398 -57 130 40 213 143 213 267 0 160 -69 242 -280
338 -125 56 -156 75 -169 104 -27 60 -4 116 55 132 53 15 92 3 136 -41 l39
-39 75 48 c42 26 78 51 80 54 10 16 -98 117 -147 139 -67 28 -176 35 -248 15z"/>
<path d="M1397 1213 c-4 -3 -7 -181 -7 -394 l0 -387 -26 -31 c-23 -28 -32 -31
-81 -31 -49 0 -59 4 -87 33 -18 17 -37 41 -43 51 -10 18 -16 16 -97 -33 -98
-60 -98 -58 -19 -142 58 -63 126 -91 229 -97 117 -6 180 14 249 81 84 82 85
88 85 559 l0 398 -98 0 c-54 0 -102 -3 -105 -7z"/>
</g>
</svg>
